# xmcd
#
# Track frame offsets: 
#        150
#        13264
#        27407
#        40609
#        53516
#        65805
#        79547
#        92040
#        105164
#        119561
#        134128
#        146538
#        160351
#        174268
#        186948
#        201366
#
# Disc length: 2859 seconds
#
# Revision: 0
# Processed by: cddbd v1.5.1PL2 Copyright (c) Steve Scherf et al.
# Submitted via: ExactAudioCopy v0.95b3
#
DISCID=dd0b2910
DTITLE=Arthur Crudup - Everything' Alright
DYEAR=2002
DGENRE=Blues
TTITLE0=Hey Mama, Everything's Alright
TTITLE1=Ethel Mae
TTITLE2=You Got To Reap
TTITLE3=That's All Right
TTITLE4=Train Fare Blues
TTITLE5=Katie May
TTITLE6=So Glad Your Mine
TTITLE7=Crudups After Hours
TTITLE8=Crudups Vicksburg Blues
TTITLE9=Just Like A Spider
TTITLE10=Roberta Blues
TTITLE11=That's Why I'm Lonesome
TTITLE12=Dirt Road Blues
TTITLE13=I Don't Know It
TTITLE14=Chicago Blues
TTITLE15=I Want My Lovin'
EXTD=
EXTT0=
EXTT1=
EXTT2=
EXTT3=
EXTT4=
EXTT5=
EXTT6=
EXTT7=
EXTT8=
EXTT9=
EXTT10=
EXTT11=
EXTT12=
EXTT13=
EXTT14=
EXTT15=
PLAYORDER=
